<svg xmlns="http://www.w3.org/2000/svg" viewBox="0 0 300 300" width="300" height="300">
  <!-- Tomato -->
  <circle cx="80" cy="100" r="35" fill="#ef4444"/>
  <path d="M80 60 Q90 50 85 40 Q75 45 80 60" fill="#22c55e"/>
  
  <!-- Carrot -->
  <path d="M180 150 Q175 120 170 90 L185 85 Q190 120 195 150 Z" fill="#ea8c55"/>
  <path d="M170 85 L180 75 L190 85 Z" fill="#22c55e"/>
  
  <!-- Broccoli -->
  <circle cx="130" cy="200" r="30" fill="#16a34a"/>
  <circle cx="115" cy="190" r="15" fill="#22c55e"/>
  <circle cx="145" cy="190" r="15" fill="#22c55e"/>
  <circle cx="120" cy="210" r="15" fill="#22c55e"/>
  <circle cx="140" cy="210" r="15" fill="#22c55e"/>
  <rect x="125" y="220" width="10" height="25" fill="#8b6f47"/>
  
  <!-- Lettuce -->
  <circle cx="240" cy="180" r="28" fill="#84cc16"/>
  <path d="M215 180 Q212 165 220 150" fill="#65a30d" stroke="#22c55e" stroke-width="2"/>
  <path d="M265 180 Q268 165 260 150" fill="#65a30d" stroke="#22c55e" stroke-width="2"/>
  <path d="M240 210 Q235 220 250 225" fill="#65a30d" stroke="#22c55e" stroke-width="2"/>
</svg>